<svg width="335" height="294" xmlns="http://www.w3.org/2000/svg" xmlns:xlink="http://www.w3.org/1999/xlink" xml:space="preserve" overflow="hidden"><g transform="translate(-3203 -1090)"><g><path d="M3208 1231C3208 1208.36 3226.36 1190 3249 1190 3271.64 1190 3290 1208.36 3290 1231 3290 1253.64 3271.64 1272 3249 1272 3226.36 1272 3208 1253.64 3208 1231Z" fill="#156082" fill-rule="evenodd" fill-opacity="1"/><path d="M3337 1343C3337 1320.36 3355.58 1302 3378.5 1302 3401.42 1302 3420 1320.36 3420 1343 3420 1365.64 3401.42 1384 3378.5 1384 3355.58 1384 3337 1365.64 3337 1343Z" fill="#00B050" fill-rule="evenodd" fill-opacity="1"/><path d="M3452 1231C3452 1208.36 3470.36 1190 3493 1190 3515.64 1190 3534 1208.36 3534 1231 3534 1253.64 3515.64 1272 3493 1272 3470.36 1272 3452 1253.64 3452 1231Z" fill="#FFC000" fill-rule="evenodd" fill-opacity="1"/><path d="M3337 1132C3337 1109.36 3355.58 1091 3378.5 1091 3401.42 1091 3420 1109.36 3420 1132 3420 1154.64 3401.42 1173 3378.5 1173 3355.58 1173 3337 1154.64 3337 1132Z" fill="#C00000" fill-rule="evenodd" fill-opacity="1"/></g></g></svg>